<?xml version="1.0" standalone="no"?>
<!DOCTYPE svg PUBLIC "-//W3C//DTD SVG 20010904//EN"
 "http://www.w3.org/TR/2001/REC-SVG-20010904/DTD/svg10.dtd">
<svg version="1.0" xmlns="http://www.w3.org/2000/svg"
 width="100.000000pt" height="100.000000pt" viewBox="0 0 100.000000 100.000000"
 preserveAspectRatio="xMidYMid meet">

<g transform="translate(0.000000,100.000000) scale(0.100000,-0.100000)"
fill="#000000" stroke="none">
<path d="M70 943 c0 -38 13 -63 35 -69 43 -11 71 -64 58 -112 -5 -21 -11 -23
-57 -20 l-51 3 -6 40 -6 40 -2 -35 c-1 -48 13 -60 71 -60 43 0 50 3 58 26 18
46 -14 124 -50 124 -20 0 -40 27 -40 54 0 19 69 23 101 6 11 -6 19 -7 19 -2 0
13 -36 22 -87 22 -34 0 -43 -4 -43 -17z"/>
<path d="M319 853 l-23 -88 -16 52 c-9 29 -19 55 -23 59 -4 4 -8 19 -8 33 -1
19 -3 21 -6 7 -3 -10 0 -28 5 -40 6 -11 18 -47 27 -80 9 -32 18 -57 20 -55 7
8 57 191 52 195 -2 2 -15 -35 -28 -83z"/>
<path d="M384 904 c-16 -86 19 -196 65 -202 32 -5 70 42 71 85 0 43 15 49 30
13 7 -17 15 -29 17 -26 5 5 -25 66 -32 66 -3 0 -13 -4 -23 -9 -9 -5 -29 -14
-44 -21 -15 -7 -25 -17 -22 -22 3 -5 14 -2 23 6 10 9 23 16 29 16 19 0 13 -53
-7 -77 -27 -33 -57 -29 -77 8 -18 36 -30 126 -20 163 5 21 13 25 54 29 l47 3
-52 2 -52 2 -7 -36z"/>
<path d="M85 231 c17 -5 42 -12 56 -15 22 -5 29 -14 37 -53 l11 -48 -5 48 c-4
40 -3 47 12 47 29 0 10 9 -29 14 -20 3 -54 7 -74 10 -34 5 -35 5 -8 -3z"/>
<path d="M340 149 c0 -6 -11 -8 -27 -5 -41 9 -60 -6 -46 -36 l12 -23 0 28 c1
28 31 40 31 12 0 -13 4 -12 22 5 l22 20 14 -22 c9 -15 11 -17 8 -5 -3 10 -6
23 -6 28 0 5 -7 9 -15 9 -8 0 -15 -5 -15 -11z"/>
<path d="M590 141 c-27 -51 2 -98 53 -88 20 4 19 4 -3 6 -26 1 -50 17 -50 33
0 4 15 8 34 8 41 0 51 12 36 40 -14 26 -56 26 -70 1z m58 -3 c20 -20 14 -28
-23 -28 -33 0 -35 2 -25 20 12 23 30 26 48 8z"/>
<path d="M407 143 c-13 -12 -7 -43 9 -43 8 0 12 -4 9 -10 -3 -5 -1 -10 4 -10
12 0 14 29 5 54 -7 17 -16 20 -27 9z m10 -25 c-3 -8 -6 -5 -6 6 -1 11 2 17 5
13 3 -3 4 -12 1 -19z"/>
<path d="M496 128 c-9 -12 -16 -28 -16 -35 0 -16 36 -17 46 -2 4 8 -1 9 -17 4
-23 -7 -23 -7 -7 16 21 32 32 30 36 -5 4 -29 -33 -81 -49 -70 -5 3 -9 0 -9 -5
0 -18 16 -12 44 15 14 15 26 37 26 50 0 55 -27 71 -54 32z"/>
<path d="M150 100 c34 -11 78 -12 83 -2 3 4 -21 7 -52 8 -39 1 -49 -1 -31 -6z"/>
</g>
</svg>
